<?xml version="1.0" encoding="UTF-8"?>
<svg width="69px" height="76px" viewBox="0 0 69 76" version="1.1" xmlns="http://www.w3.org/2000/svg" xmlns:xlink="http://www.w3.org/1999/xlink">
    <!-- Generator: sketchtool 51.2 (57519) - http://www.bohemiancoding.com/sketch -->
    <title>84727936-8EF9-41FD-BD0A-BF4E32A7DFEE</title>
    <desc>Created with sketchtool.</desc>
    <defs>
        <filter x="-2.8%" y="-31.5%" width="105.6%" height="192.6%" filterUnits="objectBoundingBox" id="filter-1">
            <feOffset dx="0" dy="12" in="SourceAlpha" result="shadowOffsetOuter1"></feOffset>
            <feGaussianBlur stdDeviation="10.5" in="shadowOffsetOuter1" result="shadowBlurOuter1"></feGaussianBlur>
            <feColorMatrix values="0 0 0 0 0   0 0 0 0 0   0 0 0 0 0  0 0 0 0.35716712 0" type="matrix" in="shadowBlurOuter1" result="shadowMatrixOuter1"></feColorMatrix>
            <feMerge>
                <feMergeNode in="shadowMatrixOuter1"></feMergeNode>
                <feMergeNode in="SourceGraphic"></feMergeNode>
            </feMerge>
        </filter>
    </defs>
    <g id="Page-1" stroke="none" stroke-width="1" fill="none" fill-rule="evenodd">
        <g id="Healy" transform="translate(-40.000000, -409.000000)" fill-rule="nonzero">
            <g id="Search" filter="url(#filter-1)" transform="translate(45.000000, 394.000000)">
                <g id="area">
                    <g id="placeholder" transform="translate(12.000000, 23.000000)">
                        <g id="Group" transform="translate(3.760638, 0.744681)" fill="#FFFFFF">
                            <path d="M23.8794574,11.9645638 C23.8794574,18.5447872 16.5978936,32.6170213 11.9645638,32.6170213 C7.33123404,32.6170213 0.0496702128,18.5447128 0.0496702128,11.9645638 C0.0496702128,5.38441489 5.38434043,0.0496702128 11.9645638,0.0496702128 C18.5447872,0.0496702128 23.8794574,5.38434043 23.8794574,11.9645638 Z" id="Shape"></path>
                            <circle id="Oval" cx="11.9645638" cy="25.4680851" r="2.38297872"></circle>
                        </g>
                        <circle id="Oval" fill="#FFFFFF" cx="17.4752021" cy="12.7092447" r="6.35458511"></circle>
                        <path d="M17.4752021,29.3900957 C15.7228936,29.3900957 14.2978723,27.9650745 14.2978723,26.212766 C14.2978723,24.4604574 15.7228936,23.0354362 17.4752021,23.0354362 C19.2275106,23.0354362 20.6525319,24.4604574 20.6525319,26.212766 C20.6524574,27.9650745 19.2274362,29.3900957 17.4752021,29.3900957 Z M17.4752021,24.6241383 C16.5990851,24.6241383 15.8865745,25.3366489 15.8865745,26.212766 C15.8865745,27.088883 16.5990851,27.8013936 17.4752021,27.8013936 C18.3513191,27.8013936 19.0638298,27.088883 19.0638298,26.212766 C19.0638298,25.3366489 18.3513191,24.6241383 17.4752021,24.6241383 Z" id="Shape" fill="#0093FF"></path>
                        <path d="M34.1560532,33.3617021 L28.5957447,33.3617021 C28.1572766,33.3617021 27.8013936,33.7175851 27.8013936,34.1560532 C27.8013936,34.5945213 28.1572766,34.9504043 28.5957447,34.9504043 L34.1560532,34.9504043 C34.5945213,34.9504043 34.9504043,34.5945213 34.9504043,34.1560532 C34.9503298,33.7175851 34.5945213,33.3617021 34.1560532,33.3617021 Z" id="Shape" fill="#000000"></path>
                        <path d="M25.4184149,33.3617021 L19.7668085,33.3617021 C24.6932447,30.2058191 30.1843723,18.363234 30.1843723,12.7092447 C30.1843723,5.70164894 24.4827234,0 17.4752021,0 C10.4676809,0 4.76595745,5.70164894 4.76595745,12.7092447 C4.76595745,18.363234 10.2571596,30.2058191 15.1835213,33.3617021 L0.794351064,33.3617021 C0.355882979,33.3617021 0,33.7175851 0,34.1560532 C0,34.5945213 0.355882979,34.9504043 0.794351064,34.9504043 L25.4184894,34.9504043 C25.8569574,34.9504043 26.2128404,34.5945213 26.2128404,34.1560532 C26.212766,33.7175851 25.856883,33.3617021 25.4184149,33.3617021 Z M6.35458511,12.7092447 C6.35458511,6.57702128 11.3429787,1.58870213 17.4751277,1.58870213 C23.6072766,1.58870213 28.5957447,6.57702128 28.5957447,12.7092447 C28.5957447,19.3902979 21.2164787,32.5674255 17.4752021,32.5674255 C13.7339255,32.5674255 6.35458511,19.3902979 6.35458511,12.7092447 Z" id="Shape" fill="#000000"></path>
                        <path d="M17.4752021,19.8581809 C13.5337553,19.8581809 10.326266,16.6506915 10.326266,12.7092447 C10.326266,8.76779787 13.5337553,5.56030851 17.4752021,5.56030851 C21.4166489,5.56030851 24.6241383,8.76779787 24.6241383,12.7092447 C24.6241383,16.6506915 21.4166489,19.8581809 17.4752021,19.8581809 Z M17.4752021,7.14893617 C14.4090532,7.14893617 11.9148936,9.64309574 11.9148936,12.7092447 C11.9148936,15.7753936 14.4090532,18.2695532 17.4752021,18.2695532 C20.5413511,18.2695532 23.0355106,15.7753936 23.0355106,12.7092447 C23.0355106,9.64309574 20.5412766,7.14893617 17.4752021,7.14893617 Z" id="Shape" fill="#000000"></path>
                        <path d="M19.8581809,11.5177553 L18.6666915,11.5177553 L18.6666915,10.326266 C18.6666915,9.66774468 18.1337234,9.1347766 17.4752021,9.1347766 C16.8166809,9.1347766 16.2837128,9.66774468 16.2837128,10.326266 L16.2837128,11.5177553 L15.0922234,11.5177553 C14.4337021,11.5177553 13.900734,12.0507234 13.900734,12.7092447 C13.900734,13.367766 14.4337021,13.900734 15.0922234,13.900734 L16.2837128,13.900734 L16.2837128,15.0922234 C16.2837128,15.7507447 16.8166809,16.2837128 17.4752021,16.2837128 C18.1337234,16.2837128 18.6666915,15.7507447 18.6666915,15.0922234 L18.6666915,13.900734 L19.8581809,13.900734 C20.5167021,13.900734 21.0496702,13.367766 21.0496702,12.7092447 C21.0496702,12.0507234 20.5166277,11.5177553 19.8581809,11.5177553 Z" id="Shape" fill="#13BA8E"></path>
                    </g>
                </g>
            </g>
        </g>
    </g>
</svg>