<?xml version="1.0" encoding="UTF-8"?>
<svg width="74px" height="75px" viewBox="0 0 74 75" version="1.1" xmlns="http://www.w3.org/2000/svg" xmlns:xlink="http://www.w3.org/1999/xlink">
    <!-- Generator: sketchtool 51.2 (57519) - http://www.bohemiancoding.com/sketch -->
    <title>CBB70B9B-8902-443A-9CA9-056E76BB84AB</title>
    <desc>Created with sketchtool.</desc>
    <defs>
        <filter x="-2.8%" y="-31.5%" width="105.6%" height="192.6%" filterUnits="objectBoundingBox" id="filter-1">
            <feOffset dx="0" dy="12" in="SourceAlpha" result="shadowOffsetOuter1"></feOffset>
            <feGaussianBlur stdDeviation="10.5" in="shadowOffsetOuter1" result="shadowBlurOuter1"></feGaussianBlur>
            <feColorMatrix values="0 0 0 0 0   0 0 0 0 0   0 0 0 0 0  0 0 0 0.35716712 0" type="matrix" in="shadowBlurOuter1" result="shadowMatrixOuter1"></feColorMatrix>
            <feMerge>
                <feMergeNode in="shadowMatrixOuter1"></feMergeNode>
                <feMergeNode in="SourceGraphic"></feMergeNode>
            </feMerge>
        </filter>
    </defs>
    <g id="Page-1" stroke="none" stroke-width="1" fill="none" fill-rule="evenodd">
        <g id="Healy" transform="translate(-309.000000, -410.000000)" fill-rule="nonzero">
            <g id="Search" filter="url(#filter-1)" transform="translate(45.000000, 394.000000)">
                <g id="Hopitals" transform="translate(269.000000, 0.000000)">
                    <g id="hospital" transform="translate(15.000000, 23.000000)">
                        <path d="M21.8607129,33.9774121 L12.1823926,33.9774121 L12.1823926,28.0653516 C12.1823926,26.8532031 13.165127,25.8704688 14.3772754,25.8704688 L19.6657617,25.8704688 C20.8779102,25.8704688 21.8606445,26.8532031 21.8606445,28.0653516 L21.8606445,33.9774121 L21.8607129,33.9774121 L21.8607129,33.9774121 Z" id="Shape" fill="#0093FF"></path>
                        <g id="Group" transform="translate(0.000000, 7.929688)" fill="#2D527C">
                            <path d="M21.8606445,27.0703125 L12.1823242,27.0703125 C11.6175391,27.0703125 11.1597363,26.6125098 11.1597363,26.0477246 L11.1597363,20.1356641 C11.1597363,18.3614648 12.6030762,16.9181934 14.377207,16.9181934 L19.6657617,16.9181934 C21.4398242,16.9181934 22.8832324,18.3616016 22.8832324,20.1356641 L22.8832324,26.0477246 C22.8831641,26.6125098 22.4253613,27.0703125 21.8606445,27.0703125 Z M13.2049805,25.0251367 L20.838125,25.0251367 L20.838125,20.1356641 C20.838125,19.4892578 20.3122363,18.9633691 19.6658301,18.9633691 L14.3772754,18.9633691 C13.7308691,18.9633691 13.2049805,19.4892578 13.2049805,20.1356641 L13.2049805,25.0251367 Z" id="Shape"></path>
                            <path d="M7.30713867,27.0703125 L1.06961914,27.0703125 C0.504833984,27.0703125 0.04703125,26.6125098 0.04703125,26.0477246 L0.04703125,16.3331055 C0.04703125,14.2469141 1.74432617,12.5496875 3.83044922,12.5496875 C4.39523437,12.5496875 4.85303711,13.0074902 4.85303711,13.5722754 C4.85303711,14.1370605 4.39523437,14.5948633 3.83044922,14.5948633 C2.87198242,14.5948633 2.09213867,15.3745703 2.09213867,16.3331738 L2.09213867,25.0252051 L7.30707031,25.0252051 C7.87185547,25.0252051 8.3296582,25.4830078 8.3296582,26.047793 C8.3296582,26.6125781 7.87192383,27.0703125 7.30713867,27.0703125 Z" id="Shape"></path>
                            <path d="M32.9734863,27.0703125 L26.7359668,27.0703125 C26.1711816,27.0703125 25.7133789,26.6125098 25.7133789,26.0477246 C25.7133789,25.4829395 26.1711816,25.0251367 26.7359668,25.0251367 L31.9508984,25.0251367 L31.9508984,16.3331055 C31.9508984,15.3746387 31.1711914,14.5947949 30.2125879,14.5947949 C29.6478027,14.5947949 29.19,14.1369922 29.19,13.572207 C29.19,13.0074219 29.6478027,12.5496191 30.2125879,12.5496191 C32.2987793,12.5496191 33.9960059,14.2469141 33.9960059,16.3330371 L33.9960059,26.0476563 C33.9960742,26.6125098 33.5382715,27.0703125 32.9734863,27.0703125 Z" id="Shape"></path>
                            <path d="M22.5088281,14.1862109 L11.534209,14.1862109 C10.9694238,14.1862109 10.5116211,13.7284082 10.5116211,13.163623 C10.5116211,12.5988379 10.9694238,12.1410352 11.534209,12.1410352 L22.5088281,12.1410352 C23.0736133,12.1410352 23.531416,12.5988379 23.531416,13.163623 C23.531416,13.7284082 23.0736133,14.1862109 22.5088281,14.1862109 Z" id="Shape"></path>
                            <path d="M22.5088281,9.89132813 L11.534209,9.89132813 C10.9694238,9.89132813 10.5116211,9.43352539 10.5116211,8.86874023 C10.5116211,8.30395508 10.9694238,7.84615234 11.534209,7.84615234 L22.5088281,7.84615234 C23.0736133,7.84615234 23.531416,8.30395508 23.531416,8.86874023 C23.531416,9.43352539 23.0736133,9.89132813 22.5088281,9.89132813 Z" id="Shape"></path>
                            <path d="M26.7358984,27.0703125 L7.30713867,27.0703125 C6.74235352,27.0703125 6.28455078,26.6125098 6.28455078,26.0477246 L6.28455078,4.51267578 C6.28455078,2.13417969 8.14290039,0.15421875 10.5153809,0.00512695313 C10.5367773,0.003828125 10.5581055,0.00307617188 10.579502,0.00307617188 L23.4635352,0.00307617188 C23.4849316,0.00307617188 23.5062598,0.00369140625 23.5276562,0.00512695313 C25.9000684,0.15421875 27.7584863,2.13411133 27.7584863,4.51267578 L27.7584863,26.0478613 C27.7584863,26.6125098 27.3006152,27.0703125 26.7358984,27.0703125 Z M8.32972656,25.0251367 L25.7133105,25.0251367 L25.7133105,4.51267578 C25.7133105,3.22095703 24.7121875,2.1440918 23.4286719,2.04825195 L10.6143652,2.04825195 C9.33084961,2.1440918 8.32972656,3.22095703 8.32972656,4.51267578 L8.32972656,25.0251367 L8.32972656,25.0251367 Z" id="Shape"></path>
                        </g>
                        <path d="M17.0215527,1.02258789 L17.0215527,1.02258789 C15.8063965,1.02258789 14.8212695,2.00764648 14.8212695,3.22287109 L14.8212695,4.95051758 L13.093623,4.95051758 C11.8784668,4.95051758 10.8933398,5.93557617 10.8933398,7.15080078 L10.8933398,7.15080078 C10.8933398,8.36595703 11.8783984,9.35108398 13.093623,9.35108398 L14.8212695,9.35108398 L14.8212695,11.0787305 C14.8212695,12.2938867 15.8063281,13.2790137 17.0215527,13.2790137 L17.0215527,13.2790137 C18.236709,13.2790137 19.2218359,12.2939551 19.2218359,11.0787305 L19.2218359,9.35108398 L20.9494824,9.35108398 C22.1646387,9.35108398 23.1497656,8.36602539 23.1497656,7.15080078 L23.1497656,7.15080078 C23.1497656,5.93564453 22.164707,4.95051758 20.9494824,4.95051758 L19.2218359,4.95051758 L19.2218359,3.22287109 C19.2217676,2.00764648 18.236709,1.02258789 17.0215527,1.02258789 Z" id="Shape" fill="#13BA8E"></path>
                        <path d="M17.0215527,14.3013965 C15.2444824,14.3013965 13.7986816,12.8556641 13.7986816,11.0785254 L13.7986816,10.3734668 L13.093623,10.3734668 C11.3165527,10.3734668 9.87075195,8.92773437 9.87075195,7.1505957 C9.87075195,5.37345703 11.3164844,3.92772461 13.093623,3.92772461 L13.7986816,3.92772461 L13.7986816,3.22266602 C13.7986816,1.44573242 15.2444141,0 17.0215527,0 C18.7986914,0 20.2444238,1.44573242 20.2444238,3.22287109 L20.2444238,3.92792969 L20.9494824,3.92792969 C22.7265527,3.92792969 24.1723535,5.37366211 24.1723535,7.15080078 C24.1723535,8.92793945 22.7266211,10.3736719 20.9494824,10.3736719 L20.2444238,10.3736719 L20.2444238,11.0787305 C20.2443555,12.8556641 18.798623,14.3013965 17.0215527,14.3013965 Z M13.093623,5.97310547 C12.4442773,5.97310547 11.9159277,6.50145508 11.9159277,7.15080078 C11.9159277,7.80014648 12.4442773,8.32849609 13.093623,8.32849609 L14.8212695,8.32849609 C15.3860547,8.32849609 15.8438574,8.78629883 15.8438574,9.35108398 L15.8438574,11.0787305 C15.8438574,11.7280762 16.372207,12.2564258 17.0215527,12.2564258 C17.6708984,12.2564258 18.199248,11.7280762 18.199248,11.0787305 L18.199248,9.35094727 C18.199248,8.78616211 18.6570508,8.32835937 19.2218359,8.32835937 L20.9494824,8.32835937 C21.5988281,8.32835937 22.1271777,7.80000977 22.1271777,7.15066406 C22.1271777,6.50131836 21.5988281,5.97296875 20.9494824,5.97296875 L19.2218359,5.97296875 C18.6570508,5.97296875 18.199248,5.51516602 18.199248,4.95038086 L18.199248,3.22287109 C18.199248,2.57352539 17.6708984,2.04517578 17.0215527,2.04517578 C16.372207,2.04517578 15.8438574,2.57352539 15.8438574,3.22287109 L15.8438574,4.95051758 C15.8438574,5.51530273 15.3860547,5.97310547 14.8212695,5.97310547 C14.8212695,5.97310547 13.093623,5.97310547 13.093623,5.97310547 Z" id="Shape" fill="#2D527C"></path>
                    </g>
                </g>
            </g>
        </g>
    </g>
</svg>