<?xml version="1.0" encoding="UTF-8"?>
<svg width="46px" height="63px" viewBox="0 0 46 63" version="1.1" xmlns="http://www.w3.org/2000/svg" xmlns:xlink="http://www.w3.org/1999/xlink">
    <!-- Generator: sketchtool 51.2 (57519) - http://www.bohemiancoding.com/sketch -->
    <title>11E8A274-39C2-4E5B-8260-AC09CBE12E2B</title>
    <desc>Created with sketchtool.</desc>
    <defs></defs>
    <g id="Page-1" stroke="none" stroke-width="1" fill="none" fill-rule="evenodd">
        <g id="Healy" transform="translate(-51.000000, -25.000000)" fill-rule="nonzero">
            <g id="nav" transform="translate(51.000000, 25.000000)">
                <g id="desinfectant">
                    <path d="M22.9992234,24.8825484 L22.9992234,24.8825484 C20.7249916,24.8825484 18.8812613,26.7174386 18.8812613,28.9809164 L18.8812613,32.1989754 L15.6479131,32.1989754 C13.3736814,32.1989754 11.5300734,34.0338656 11.5300734,36.2973433 L11.5300734,36.2973433 C11.5300734,38.5608211 13.3736814,40.3957113 15.6479131,40.3957113 L18.8812613,40.3957113 L18.8812613,43.6137703 C18.8812613,45.877248 20.7248693,47.7121383 22.999101,47.7121383 L22.999101,47.7121383 C25.2733327,47.7121383 27.1169407,45.877248 27.1169407,43.6137703 L27.1169407,40.3957113 L30.350289,40.3957113 C32.6245207,40.3957113 34.4681286,38.5608211 34.4681286,36.2973433 L34.4681286,36.2973433 C34.4681286,34.0338656 32.6245207,32.1989754 30.350289,32.1989754 L27.1169407,32.1989754 L27.1169407,28.9809164 C27.117063,26.7174386 25.2734551,24.8825484 22.9992234,24.8825484 Z" id="Shape"></path>
                    <g id="Group" fill="#FFFFFF">
                        <path d="M22.9992234,49.4592411 C19.760737,49.4592411 17.1262249,46.8370649 17.1262249,43.6140138 L17.1262249,42.1428142 L15.6480354,42.1428142 C12.409549,42.1428142 9.77503694,39.5205162 9.77503694,36.2975868 C9.77503694,33.0746575 12.4097937,30.4523595 15.6480354,30.4523595 L17.1262249,30.4523595 L17.1262249,28.9811599 C17.1262249,25.7579871 19.7609816,23.1359326 22.9992234,23.1359326 C26.2377097,23.1359326 28.8723442,25.7582306 28.8723442,28.9811599 L28.8723442,30.4523595 L30.3505336,30.4523595 C33.5887753,30.4523595 36.2235321,33.0746575 36.2235321,36.2975868 C36.2235321,39.5206379 33.5887753,42.1428142 30.3505336,42.1428142 L28.8723442,42.1428142 L28.8723442,43.6140138 C28.8723442,46.8371866 26.2377097,49.4592411 22.9992234,49.4592411 Z M15.6479131,33.9458347 C14.3450316,33.9458347 13.2852322,35.0007444 13.2852322,36.2973433 C13.2852322,37.5939423 14.3451539,38.648852 15.6479131,38.648852 L18.8812613,38.648852 C19.8506541,38.648852 20.6364202,39.4309024 20.6364202,40.3957113 L20.6364202,43.6137703 C20.6364202,44.910491 21.6963418,45.9652789 22.999101,45.9652789 C24.3018602,45.9652789 25.3619042,44.9103693 25.3619042,43.6137703 L25.3619042,40.3957113 C25.3619042,39.4309024 26.1479149,38.648852 27.117063,38.648852 L30.3504113,38.648852 C31.6532928,38.648852 32.7130921,37.5939423 32.7130921,36.2973433 C32.7130921,35.0007444 31.6532928,33.9458347 30.3504113,33.9458347 L27.117063,33.9458347 C26.1477926,33.9458347 25.3619042,33.1637843 25.3619042,32.1989754 L25.3619042,28.9809164 C25.3619042,27.6841957 24.3019826,26.6294077 22.999101,26.6294077 C21.6962195,26.6294077 20.6364202,27.6843174 20.6364202,28.9809164 L20.6364202,32.1989754 C20.6364202,33.1637843 19.8506541,33.9458347 18.8812613,33.9458347 L15.6479131,33.9458347 L15.6479131,33.9458347 Z" id="Shape"></path>
                        <path d="M22.9992234,62.3400002 C16.7625191,62.3400002 11.0030487,60.0082163 6.78171248,55.7745754 C2.45431074,51.4342746 0.0709550508,45.3617255 0.0709550508,38.6751517 C0.0709550508,23.5613544 15.9363821,5.96747216 20.7987604,0.93522176 C21.3790015,0.33459047 22.15914,0.00255691407 22.9956756,-1.687539e-14 L23.0057072,-1.687539e-14 C23.838328,-1.687539e-14 24.6166315,0.327041485 25.1982183,0.921341369 C26.0145683,1.75586942 27.3128011,3.11980044 28.8626796,4.87920083 C29.5017644,5.60463388 29.428852,6.70836845 28.69985,7.34443127 C27.971215,7.98049408 26.8619919,7.90792643 26.2231517,7.18249338 C24.9150097,5.69729158 23.7946539,4.50613489 23.0075422,3.69206216 C19.0854406,7.80211889 3.58127268,24.9247983 3.58127268,38.6751517 C3.58127268,50.3630494 11.7475873,58.8461597 22.9992234,58.8461597 C34.2508594,58.8461597 42.4170517,50.3629276 42.4170517,38.6751517 C42.4170517,30.0721099 36.5315749,20.3912679 31.5944491,13.7849325 C31.0157984,13.0106746 31.1774046,11.9164371 31.9553411,11.3406444 C32.7329106,10.7648517 33.8324692,10.9255721 34.4109976,11.69983 C42.0527342,21.9250511 45.9273693,31.0008785 45.9273693,38.6752734 C45.9273693,45.3616037 43.544136,51.4342746 39.2166119,55.7745754 C34.9951534,60.0084598 29.235683,62.3400002 22.9992234,62.3400002 Z" id="Shape"></path>
                    </g>
                </g>
            </g>
        </g>
    </g>
</svg>