<?xml version="1.0" encoding="UTF-8"?>
<svg width="77px" height="77px" viewBox="0 0 77 77" version="1.1" xmlns="http://www.w3.org/2000/svg" xmlns:xlink="http://www.w3.org/1999/xlink">
    <!-- Generator: sketchtool 51.2 (57519) - http://www.bohemiancoding.com/sketch -->
    <title>C74D57D6-1889-499F-8665-B56AC02D8356</title>
    <desc>Created with sketchtool.</desc>
    <defs>
        <filter x="-2.8%" y="-31.5%" width="105.6%" height="192.6%" filterUnits="objectBoundingBox" id="filter-1">
            <feOffset dx="0" dy="12" in="SourceAlpha" result="shadowOffsetOuter1"></feOffset>
            <feGaussianBlur stdDeviation="10.5" in="shadowOffsetOuter1" result="shadowBlurOuter1"></feGaussianBlur>
            <feColorMatrix values="0 0 0 0 0   0 0 0 0 0   0 0 0 0 0  0 0 0 0.35716712 0" type="matrix" in="shadowBlurOuter1" result="shadowMatrixOuter1"></feColorMatrix>
            <feMerge>
                <feMergeNode in="shadowMatrixOuter1"></feMergeNode>
                <feMergeNode in="SourceGraphic"></feMergeNode>
            </feMerge>
        </filter>
    </defs>
    <g id="Page-1" stroke="none" stroke-width="1" fill="none" fill-rule="evenodd">
        <g id="Healy" transform="translate(-832.000000, -408.000000)" fill-rule="nonzero">
            <g id="Search" filter="url(#filter-1)" transform="translate(45.000000, 394.000000)">
                <g id="Insurance" transform="translate(793.000000, 0.000000)">
                    <g id="folder-1" transform="translate(15.000000, 23.000000)">
                        <path d="M31.2024316,35 L3.66071289,35 C1.65354492,35 0.0205761719,33.3670312 0.0205761719,31.3598633 L0.0205761719,10.399375 C0.0205761719,8.39220703 1.65354492,6.75923828 3.66071289,6.75923828 L31.2023633,6.75923828 C33.209668,6.75923828 34.8426367,8.39220703 34.8426367,10.399375 L34.8426367,11.5804883 C34.8426367,12.1322168 34.3952246,12.5796973 33.8434277,12.5796973 C33.2916309,12.5796973 32.8442187,12.1322852 32.8442187,11.5804883 L32.8442187,10.399375 C32.8442187,9.4940918 32.1077148,8.75758789 31.2023633,8.75758789 L3.66071289,8.75758789 C2.75542969,8.75758789 2.01892578,9.4940918 2.01892578,10.399375 L2.01892578,31.3598633 C2.01892578,32.2651465 2.75542969,33.0016504 3.66071289,33.0016504 L31.2023633,33.0016504 C32.1076465,33.0016504 32.8441504,32.2651465 32.8441504,31.3598633 L32.8442187,16.6829004 C32.8442187,16.1311719 33.2916309,15.6836914 33.8434277,15.6836914 C34.3952246,15.6836914 34.8426367,16.1311035 34.8426367,16.6829004 L34.8425684,31.3598633 C34.8424316,33.3670312 33.2095996,35 31.2024316,35 Z" id="Shape" fill="#2D527C"></path>
                        <circle id="Oval" fill="#13BA8E" cx="17.4315723" cy="20.8803711" r="8.11972656"></circle>
                        <g id="Group" transform="translate(4.306641, 0.000000)" fill="#2D527C">
                            <path d="M13.1248633,29.998418 C8.09682617,29.998418 4.00626953,25.907793 4.00626953,20.8796875 C4.00626953,15.851582 8.09689453,11.7608887 13.1248633,11.7608887 C18.1529688,11.7608887 22.2435938,15.8515137 22.2435938,20.8796875 C22.2435938,25.9077246 18.1530371,29.998418 13.1248633,29.998418 Z M13.1248633,13.7593066 C9.19871094,13.7593066 6.00461914,16.9535352 6.00461914,20.8797559 C6.00461914,24.8059082 9.19871094,28.0000684 13.1248633,28.0000684 C17.0510156,28.0000684 20.2451758,24.8058398 20.2451758,20.8797559 C20.2452441,16.9534668 17.0510156,13.7593066 13.1248633,13.7593066 Z" id="Shape"></path>
                            <path d="M13.1248633,25.1094922 C12.572998,25.1094922 12.1256543,24.6620801 12.1256543,24.1102832 L12.1256543,17.6488867 C12.1256543,17.0971582 12.572998,16.6496777 13.1248633,16.6496777 C13.6767285,16.6496777 14.1240723,17.0970898 14.1240723,17.6488867 L14.1240723,24.1102832 C14.1240723,24.6620801 13.6767285,25.1094922 13.1248633,25.1094922 Z" id="Shape"></path>
                            <path d="M16.3555957,21.8788281 L9.89419922,21.8788281 C9.34233398,21.8788281 8.89499023,21.431416 8.89499023,20.8796191 C8.89499023,20.3278223 9.34233398,19.8804102 9.89419922,19.8804102 L16.3555957,19.8804102 C16.9073242,19.8804102 17.3548047,20.3278223 17.3548047,20.8796191 C17.3548047,21.431416 16.9074609,21.8788281 16.3555957,21.8788281 Z" id="Shape"></path>
                            <path d="M18.8821582,8.60753906 L18.8800391,8.60753906 C18.3281738,8.60630859 17.8817187,8.15807617 17.8829492,7.6062793 L17.8919727,3.31748047 C17.8934766,2.97308594 17.7614746,2.65063477 17.5204395,2.40761719 C17.279541,2.16453125 16.9583203,2.02993164 16.6159766,2.02842773 L9.66560547,1.99848633 C8.96068359,1.99199219 8.38174805,2.56771484 8.37874023,3.2743457 L8.35795898,7.0900293 C8.35495117,7.63998047 7.90822266,8.08370117 7.35888672,8.08370117 L7.35341797,8.08370117 C6.80155273,8.08069336 6.35660156,7.63095703 6.35960937,7.07902344 L6.38039062,3.26450195 C6.38811523,1.46200195 7.85797852,0 9.65993164,0 L9.67415039,0 L16.6245215,0.0300097656 C18.4329687,0.037734375 19.8979785,1.51532227 19.8902539,3.32383789 L19.8812305,7.61038086 C19.8801367,8.16149414 19.4329297,8.60753906 18.8821582,8.60753906 Z" id="Shape"></path>
                            <path d="M25.2311035,8.52113281 L19.0041113,8.52113281 C18.4523828,8.52113281 18.0049023,8.0737207 18.0049023,7.52192383 L18.0049023,4.4759668 C18.0049023,3.92423828 18.4523145,3.47675781 19.0041113,3.47675781 L23.449248,3.47675781 C24.9828223,3.47675781 26.2303125,4.72424805 26.2303125,6.25782227 L26.2303125,7.52192383 C26.2303125,8.07378906 25.7827637,8.52113281 25.2311035,8.52113281 Z M20.0031836,6.52271484 L24.2317578,6.52271484 L24.2317578,6.25782227 C24.2317578,5.82626953 23.8806641,5.47517578 23.4491113,5.47517578 L20.0031836,5.47517578 L20.0031836,6.52271484 Z" id="Shape"></path>
                            <path d="M7.24568359,8.52113281 L1.01869141,8.52113281 C0.466826172,8.52113281 0.0194824219,8.0737207 0.0194824219,7.52192383 L0.0194824219,6.25782227 C0.0194824219,4.72424805 1.26704102,3.47675781 2.80054687,3.47675781 L7.24568359,3.47675781 C7.79754883,3.47675781 8.24489258,3.92416992 8.24489258,4.4759668 L8.24489258,7.52192383 C8.24489258,8.07378906 7.79754883,8.52113281 7.24568359,8.52113281 Z M2.01790039,6.52271484 L6.24647461,6.52271484 L6.24647461,5.47517578 L2.80054688,5.47517578 C2.36899414,5.47517578 2.01790039,5.82626953 2.01790039,6.25782227 L2.01790039,6.52271484 L2.01790039,6.52271484 Z" id="Shape"></path>
                        </g>
                    </g>
                </g>
            </g>
        </g>
    </g>
</svg>